<svg width="48" height="48" viewBox="0 0 48 48" fill="none" xmlns="http://www.w3.org/2000/svg">
<circle cx="24" cy="24" r="23" fill="#3AA9C5" stroke="#393333" stroke-width="2"/>
<path d="M33.7181 35.0666L33.7179 35.0667L30.6667 38.227L27.6154 35.0667L27.6152 35.0666C25.9056 33.2968 25.9056 30.4152 27.6152 28.6454L27.6152 28.6455L27.6204 28.6401C28.0132 28.2273 28.4858 27.8987 29.0094 27.6742C29.5331 27.4496 30.0969 27.3339 30.6667 27.3339C31.2364 27.3339 31.8003 27.4496 32.3239 27.6742C32.8476 27.8987 33.3202 28.2273 33.7129 28.6401L33.7129 28.6401L33.7181 28.6454C35.4277 30.4152 35.4277 33.2968 33.7181 35.0666ZM33.2394 34.6026C34.6957 33.0943 34.6975 30.6256 33.2448 29.115C32.9148 28.764 32.5166 28.4841 32.0746 28.2924C31.6302 28.0997 31.151 28.0003 30.6667 28.0003C30.1823 28.0003 29.7031 28.0997 29.2587 28.2924C28.8167 28.4841 28.4186 28.764 28.0886 29.115C26.6356 30.6259 26.6379 33.0942 28.0935 34.6035L28.0943 34.6043L29.9477 36.5217L30.6672 37.266L31.3862 36.5212L31.52 36.3825V36.3833L33.2394 34.6026ZM13.0518 36C13.2802 33.8037 14.2557 31.7402 15.8313 30.1646C17.4069 28.589 19.4704 27.6135 21.6667 27.3852V28.0557C19.6476 28.2814 17.7531 29.1856 16.3027 30.636C14.8523 32.0865 13.948 33.981 13.7224 36H13.0518ZM22.6667 24C18.799 24 15.6667 20.8677 15.6667 17C15.6667 13.1323 18.799 10 22.6667 10C26.5344 10 29.6667 13.1323 29.6667 17C29.6667 20.8677 26.5344 24 22.6667 24ZM22.6667 23.3333C26.1656 23.3333 29 20.499 29 17C29 13.501 26.1656 10.6667 22.6667 10.6667C19.1677 10.6667 16.3333 13.501 16.3333 17C16.3333 20.499 19.1677 23.3333 22.6667 23.3333Z" fill="white" stroke="white" stroke-width="2"/>
</svg>
