<svg width="58" height="54" viewBox="0 0 58 54" fill="none" xmlns="http://www.w3.org/2000/svg">
<path d="M15.132 30.9263C8.51491 30.9263 4.43434 36.7456 4.43434 43.0445C4.43434 45.9364 3.15083 48.0344 0.155334 49.1752C2.43751 53.5947 11.3422 54.4205 15.1322 53.7373C19.6746 52.9184 25.3377 50.5674 26.6857 43.9279C28.2545 36.2013 21.7489 30.9263 15.132 30.9263Z" fill="white"/>
<path d="M55.6756 2.50684C54.0246 0.85667 51.8568 0.303044 49.9507 1.82501L27.6324 21.4637C26.5302 21.1615 25.5263 21.2255 24.7127 21.7627L17.2198 28.0017C17.0144 28.207 17.0229 28.5502 17.2282 28.7554C17.2918 28.8192 17.3638 28.8561 17.4444 28.8803C17.5263 28.8846 17.6055 28.8878 17.6865 28.8934L17.6934 28.8916C23.8029 29.329 29.2953 33.5758 29.0743 40.2988C29.0723 40.3632 29.0706 40.4272 29.0674 40.492C29.0831 40.6001 29.1311 40.7041 29.2138 40.7871C29.3114 40.8844 29.4433 40.9395 29.5811 40.9406C29.7189 40.9416 29.8516 40.8885 29.9506 40.7927C29.9529 40.7904 29.9553 40.7892 29.9576 40.7871C29.9656 40.779 29.9711 40.7696 29.9785 40.7616L36.4091 33.4536C36.9464 32.6412 37.0106 31.6387 36.7092 30.5382L56.3575 8.22918C57.8806 6.32411 57.3266 4.15753 55.6756 2.50684Z" fill="white"/>
</svg>
