<svg width="20" height="20" viewBox="0 0 27 27" fill="none" xmlns="http://www.w3.org/2000/svg">
<path d="M13.3333 26.6667C11.5111 26.6667 9.78889 26.3164 8.16667 25.616C6.54444 24.9164 5.128 23.9609 3.91733 22.7493C2.70578 21.5387 1.75022 20.1222 1.05067 18.5C0.350222 16.8778 0 15.1556 0 13.3333C0 11.4889 0.350222 9.76133 1.05067 8.15067C1.75022 6.53911 2.70578 5.128 3.91733 3.91733C5.128 2.70578 6.54444 1.74978 8.16667 1.04933C9.78889 0.349778 11.5111 0 13.3333 0C15.1778 0 16.9053 0.349778 18.516 1.04933C20.1276 1.74978 21.5387 2.70578 22.7493 3.91733C23.9609 5.128 24.9164 6.53911 25.616 8.15067C26.3164 9.76133 26.6667 11.4889 26.6667 13.3333V15.2667C26.6667 16.5778 26.2169 17.6942 25.3173 18.616C24.4169 19.5387 23.3111 20 22 20C21.2 20 20.4556 19.8222 19.7667 19.4667C19.0778 19.1111 18.5111 18.6444 18.0667 18.0667C17.4667 18.6667 16.7613 19.1391 15.9507 19.484C15.1391 19.828 14.2667 20 13.3333 20C11.4889 20 9.91689 19.3498 8.61733 18.0493C7.31689 16.7498 6.66667 15.1778 6.66667 13.3333C6.66667 11.4889 7.31689 9.91644 8.61733 8.616C9.91689 7.31644 11.4889 6.66667 13.3333 6.66667C15.1778 6.66667 16.7502 7.31644 18.0507 8.616C19.3502 9.91644 20 11.4889 20 13.3333V15.2667C20 15.9111 20.2 16.4164 20.6 16.7827C21 17.1498 21.4667 17.3333 22 17.3333C22.5333 17.3333 23 17.1498 23.4 16.7827C23.8 16.4164 24 15.9111 24 15.2667V13.3333C24 10.4222 22.9498 7.91644 20.8493 5.816C18.7498 3.71644 16.2444 2.66667 13.3333 2.66667C10.4222 2.66667 7.91644 3.71644 5.816 5.816C3.71644 7.91644 2.66667 10.4222 2.66667 13.3333C2.66667 16.2444 3.71644 18.7498 5.816 20.8493C7.91644 22.9498 10.4222 24 13.3333 24H18.6667C19.0444 24 19.3609 24.128 19.616 24.384C19.872 24.6391 20 24.9556 20 25.3333C20 25.7111 19.872 26.0276 19.616 26.2827C19.3609 26.5387 19.0444 26.6667 18.6667 26.6667H13.3333ZM13.3333 17.3333C14.4444 17.3333 15.3889 16.9444 16.1667 16.1667C16.9444 15.3889 17.3333 14.4444 17.3333 13.3333C17.3333 12.2222 16.9444 11.2778 16.1667 10.5C15.3889 9.72222 14.4444 9.33333 13.3333 9.33333C12.2222 9.33333 11.2778 9.72222 10.5 10.5C9.72222 11.2778 9.33333 12.2222 9.33333 13.3333C9.33333 14.4444 9.72222 15.3889 10.5 16.1667C11.2778 16.9444 12.2222 17.3333 13.3333 17.3333Z" fill="black"/>
<path d="M13.3333 26.6667C11.5111 26.6667 9.78889 26.3164 8.16667 25.616C6.54444 24.9164 5.128 23.9609 3.91733 22.7493C2.70578 21.5387 1.75022 20.1222 1.05067 18.5C0.350222 16.8778 0 15.1556 0 13.3333C0 11.4889 0.350222 9.76133 1.05067 8.15067C1.75022 6.53911 2.70578 5.128 3.91733 3.91733C5.128 2.70578 6.54444 1.74978 8.16667 1.04933C9.78889 0.349778 11.5111 0 13.3333 0C15.1778 0 16.9053 0.349778 18.516 1.04933C20.1276 1.74978 21.5387 2.70578 22.7493 3.91733C23.9609 5.128 24.9164 6.53911 25.616 8.15067C26.3164 9.76133 26.6667 11.4889 26.6667 13.3333V15.2667C26.6667 16.5778 26.2169 17.6942 25.3173 18.616C24.4169 19.5387 23.3111 20 22 20C21.2 20 20.4556 19.8222 19.7667 19.4667C19.0778 19.1111 18.5111 18.6444 18.0667 18.0667C17.4667 18.6667 16.7613 19.1391 15.9507 19.484C15.1391 19.828 14.2667 20 13.3333 20C11.4889 20 9.91689 19.3498 8.61733 18.0493C7.31689 16.7498 6.66667 15.1778 6.66667 13.3333C6.66667 11.4889 7.31689 9.91644 8.61733 8.616C9.91689 7.31644 11.4889 6.66667 13.3333 6.66667C15.1778 6.66667 16.7502 7.31644 18.0507 8.616C19.3502 9.91644 20 11.4889 20 13.3333V15.2667C20 15.9111 20.2 16.4164 20.6 16.7827C21 17.1498 21.4667 17.3333 22 17.3333C22.5333 17.3333 23 17.1498 23.4 16.7827C23.8 16.4164 24 15.9111 24 15.2667V13.3333C24 10.4222 22.9498 7.91644 20.8493 5.816C18.7498 3.71644 16.2444 2.66667 13.3333 2.66667C10.4222 2.66667 7.91644 3.71644 5.816 5.816C3.71644 7.91644 2.66667 10.4222 2.66667 13.3333C2.66667 16.2444 3.71644 18.7498 5.816 20.8493C7.91644 22.9498 10.4222 24 13.3333 24H18.6667C19.0444 24 19.3609 24.128 19.616 24.384C19.872 24.6391 20 24.9556 20 25.3333C20 25.7111 19.872 26.0276 19.616 26.2827C19.3609 26.5387 19.0444 26.6667 18.6667 26.6667H13.3333ZM13.3333 17.3333C14.4444 17.3333 15.3889 16.9444 16.1667 16.1667C16.9444 15.3889 17.3333 14.4444 17.3333 13.3333C17.3333 12.2222 16.9444 11.2778 16.1667 10.5C15.3889 9.72222 14.4444 9.33333 13.3333 9.33333C12.2222 9.33333 11.2778 9.72222 10.5 10.5C9.72222 11.2778 9.33333 12.2222 9.33333 13.3333C9.33333 14.4444 9.72222 15.3889 10.5 16.1667C11.2778 16.9444 12.2222 17.3333 13.3333 17.3333Z" fill="#3AA9C5" fill-opacity="0.2"/>
</svg>
