<svg width="62" height="64" viewBox="0 0 62 64" fill="none" xmlns="http://www.w3.org/2000/svg">
<path d="M51.3497 3.41891C49.122 2.11942 46.6627 1.27591 44.1123 0.936547C41.5618 0.597187 38.9702 0.768624 36.4853 1.44107C34.0005 2.11351 31.6711 3.2738 29.6302 4.85566C27.5893 6.43752 25.8768 8.40998 24.5906 10.6604L23.8526 11.9509C23.6 12.3937 23.5319 12.9198 23.6631 13.4134C23.7943 13.907 24.1142 14.3277 24.5525 14.5832L38.4499 22.6884L30.1333 37.3925L29.9603 37.3899C21.9236 37.3899 14.9635 42.0993 10.8179 48.7573C11.4561 48.5294 12.133 48.4325 12.8087 48.4721C13.4845 48.5118 14.1457 48.6871 14.7535 48.988C15.3614 49.289 15.9037 49.7093 16.3488 50.2245C16.7938 50.7397 17.1326 51.3394 17.3454 51.9886C18.8622 56.6106 24.3896 56.3586 25.7842 52.2636C26.1292 51.2516 26.7783 50.3736 27.641 49.7521C28.5037 49.1305 29.5368 48.7965 30.5965 48.7965C31.6561 48.7965 32.6893 49.1305 33.552 49.7521C34.4146 50.3736 35.0637 51.2516 35.4088 52.2636C36.8034 56.3586 42.3308 56.6106 43.8475 51.986C44.1973 50.9207 44.8827 50.0002 45.799 49.3653C46.7152 48.7303 47.812 48.4156 48.9219 48.4694C45.5322 43.179 40.3509 39.1636 34.2712 37.85L41.7556 24.6164L55.1746 32.444C55.3918 32.5707 55.6316 32.653 55.8803 32.686C56.1289 32.7191 56.3816 32.7023 56.6239 32.6367C56.8662 32.571 57.0932 32.4578 57.2921 32.3034C57.491 32.149 57.6579 31.9566 57.7831 31.7371L58.5211 30.4492C59.8074 28.1987 60.6423 25.7144 60.9781 23.138C61.3139 20.5616 61.1439 17.9436 60.478 15.4336C59.8121 12.9235 58.6632 10.5706 57.0969 8.50909C55.5307 6.4476 53.5778 4.71794 51.3497 3.41891ZM14.3273 52.9963C14.1966 52.5996 13.9418 52.2565 13.6013 52.0189C13.2608 51.7812 12.853 51.6618 12.4395 51.6786C12.0259 51.6954 11.629 51.8476 11.3085 52.1122C10.988 52.3767 10.7614 52.7393 10.6627 53.1453C10.0137 55.824 8.78457 57.2944 7.38491 58.1478C5.91907 59.0424 4.05116 59.3869 1.96692 59.3869C1.46072 59.3869 0.975254 59.59 0.617315 59.9515C0.259376 60.3131 0.0582886 60.8035 0.0582886 61.3148C0.0582886 61.8262 0.259376 62.3166 0.617315 62.6781C0.975254 63.0397 1.46072 63.2428 1.96692 63.2428C4.40234 63.2428 7.05662 62.8521 9.35716 61.4485C10.7301 60.6119 11.8873 59.4588 12.7342 58.0835C17.2869 63.9497 26.1761 63.9189 30.5965 58.0218C35.0881 64.0114 44.186 63.9497 48.6725 57.8008C49.8905 59.4754 51.479 60.8395 53.3112 61.7843C55.1435 62.7292 57.1689 63.2286 59.226 63.2428C59.7322 63.2428 60.2177 63.0397 60.5756 62.6781C60.9336 62.3166 61.1346 61.8262 61.1346 61.3148C61.1346 60.8035 60.9336 60.3131 60.5756 59.9515C60.2177 59.59 59.7322 59.3869 59.226 59.3869C55.4724 59.3869 51.7314 56.919 50.4972 53.0168C50.375 52.6285 50.1343 52.2892 49.8094 52.0477C49.4845 51.8062 49.0922 51.6749 48.6888 51.6726C48.2855 51.6703 47.8918 51.7972 47.5642 52.035C47.2367 52.2728 46.9921 52.6093 46.8657 52.9963C44.415 60.4742 34.8082 60.3791 32.4008 53.3073C32.2712 52.928 32.0278 52.599 31.7044 52.3661C31.381 52.1332 30.9937 52.008 30.5965 52.008C30.1993 52.008 29.812 52.1332 29.4886 52.3661C29.1651 52.599 28.9217 52.928 28.7922 53.3073C26.3847 60.3791 16.7805 60.4742 14.3273 52.9988V52.9963Z" fill="white"/>
</svg>
