<svg width="24" height="27" viewBox="0 0 24 27" fill="none" xmlns="http://www.w3.org/2000/svg">
<path d="M3.49901 0.677858L11.7337 10.1L19.9257 0.726678C20.1066 0.506301 20.3246 0.330008 20.5666 0.208369C20.8085 0.0867304 21.0694 0.0222512 21.3337 0.0187988C21.8995 0.0187988 22.4421 0.275971 22.8422 0.73374C23.2423 1.19151 23.467 1.81238 23.467 2.45976C23.472 2.75903 23.4235 3.0563 23.3244 3.33334C23.2254 3.61037 23.0779 3.86132 22.891 4.0708L14.5923 13.4441L22.891 22.9394C23.2426 23.333 23.4488 23.866 23.467 24.4284C23.467 25.0758 23.2423 25.6967 22.8422 26.1544C22.4421 26.6122 21.8995 26.8694 21.3337 26.8694C21.0618 26.8823 20.7905 26.8304 20.5371 26.7169C20.2837 26.6034 20.0537 26.4309 19.8617 26.2103L11.7337 16.7882L3.52035 26.1859C3.34009 26.3989 3.12475 26.569 2.88675 26.6863C2.64875 26.8036 2.3928 26.8658 2.13368 26.8694C1.56789 26.8694 1.02526 26.6122 0.625186 26.1544C0.225108 25.6967 0.000347108 25.0758 0.000347108 24.4284C-0.00462675 24.1291 0.0439 23.8319 0.14295 23.5548C0.241999 23.2778 0.389482 23.0269 0.576347 22.8174L8.87501 13.4441L0.576347 3.94875C0.224742 3.55516 0.018565 3.02219 0.000347108 2.45976C0.000347108 1.81238 0.225108 1.19151 0.625186 0.73374C1.02526 0.275971 1.56789 0.0187988 2.13368 0.0187988C2.64568 0.0261217 3.13635 0.262895 3.49901 0.677858Z" fill="#393333"/>
</svg>
