<svg width="71" height="55" viewBox="0 0 71 55" fill="none" xmlns="http://www.w3.org/2000/svg">
<path d="M21.6292 42.6926H42.4399C48.1845 42.6926 52.8453 37.5888 52.8453 31.2981H56.3137C63.966 31.2981 70.1875 24.4851 70.1875 16.1053C70.1875 7.72559 63.966 0.912598 56.3137 0.912598H13.8252C12.3837 0.912598 11.2239 2.18262 11.2239 3.76124V31.2981C11.2239 37.5888 15.8846 42.6926 21.6292 42.6926ZM56.3137 8.50897C60.1398 8.50897 63.2506 11.9155 63.2506 16.1053C63.2506 20.2952 60.1398 23.7017 56.3137 23.7017H52.8453V8.50897H56.3137ZM61.4839 54.0872H6.05375C0.894433 54.0872 -0.557979 46.4908 2.15174 46.4908H65.375C68.0847 46.4908 66.654 54.0872 61.4839 54.0872Z" fill="white"/>
</svg>
