<svg width="64" height="64" viewBox="0 0 64 64" fill="none" xmlns="http://www.w3.org/2000/svg">
<g filter="url(#filter0_d_350_360)">
<path d="M42.1684 6.31975C42.1684 3.35656 44.6065 0.932129 47.5864 0.932129C50.5663 0.932129 53.0043 3.35656 53.0043 6.31975C53.0043 9.28295 50.5663 11.7074 47.5864 11.7074C44.6065 11.7074 42.1684 9.28295 42.1684 6.31975ZM53.0043 54.8084V38.6455H59.7768L53.0043 18.1725C52.1916 16.0175 50.2954 14.4012 47.8573 14.4012H47.5864C45.1483 14.4012 43.252 16.0175 42.4393 18.1725L40.0013 25.1764C42.9811 26.7927 44.8774 29.7559 44.8774 33.5273V55.0778H53.0043M32.687 26.5233C34.8542 26.5233 36.7505 24.6377 36.7505 22.4826C36.7505 20.3276 34.8542 18.4419 32.687 18.4419C30.5199 18.4419 28.6236 20.3276 28.6236 22.4826C28.6236 24.6377 30.5199 26.5233 32.687 26.5233M13.7242 11.7074C16.7041 11.7074 19.1422 9.28295 19.1422 6.31975C19.1422 3.35656 16.7041 0.932129 13.7242 0.932129C10.7443 0.932129 8.30626 3.35656 8.30626 6.31975C8.30626 9.28295 10.7443 11.7074 13.7242 11.7074ZM19.1422 54.8084V35.9517H23.2056V19.7888C23.2056 16.8256 20.7675 14.4012 17.7877 14.4012H9.66075C6.68087 14.4012 4.2428 16.8256 4.2428 19.7888V35.9517H8.30626V54.8084H19.1422ZM36.7505 54.8084V44.0331H39.4595V33.2579C39.4595 31.1028 37.5632 29.2172 35.396 29.2172H29.9781C27.8109 29.2172 25.9146 31.1028 25.9146 33.2579V44.0331H28.6236V54.8084H36.7505Z" fill="white"/>
</g>
<defs>
<filter id="filter0_d_350_360" x="0.242798" y="0.932129" width="63.5339" height="62.1455" filterUnits="userSpaceOnUse" color-interpolation-filters="sRGB">
<feFlood flood-opacity="0" result="BackgroundImageFix"/>
<feColorMatrix in="SourceAlpha" type="matrix" values="0 0 0 0 0 0 0 0 0 0 0 0 0 0 0 0 0 0 127 0" result="hardAlpha"/>
<feOffset dy="4"/>
<feGaussianBlur stdDeviation="2"/>
<feComposite in2="hardAlpha" operator="out"/>
<feColorMatrix type="matrix" values="0 0 0 0 0 0 0 0 0 0 0 0 0 0 0 0 0 0 0.25 0"/>
<feBlend mode="normal" in2="BackgroundImageFix" result="effect1_dropShadow_350_360"/>
<feBlend mode="normal" in="SourceGraphic" in2="effect1_dropShadow_350_360" result="shape"/>
</filter>
</defs>
</svg>
