<svg width="62" height="62" viewBox="0 0 62 62" fill="none" xmlns="http://www.w3.org/2000/svg">
<path d="M0.330078 39.0291C0.330078 36.2524 0.931696 33.8227 2.13493 31.7402C3.33817 29.6577 4.91163 27.9223 6.85532 26.5339C8.79901 25.1456 11.0204 24.1043 13.5194 23.4101C16.0184 22.716 18.5637 22.3689 21.1553 22.3689C23.7469 22.3689 26.2922 22.716 28.7912 23.4101C31.2903 24.1043 33.5116 25.1456 35.4553 26.5339C37.399 27.9223 38.9725 29.6577 40.1757 31.7402C41.3789 33.8227 41.9806 36.2524 41.9806 39.0291H0.330078ZM47.534 61.2427V39.0291C47.534 33.7071 45.9031 29.1838 42.6414 25.4593C39.3779 21.733 34.7843 19.1294 28.8607 17.6485L28.0971 11.2621H41.9806V0.155273H47.534V11.2621H61.4175L56.8359 57.2164C56.6971 58.3271 56.1991 59.2758 55.342 60.0626C54.4868 60.8493 53.4576 61.2427 52.2544 61.2427H47.534ZM0.330078 50.1359V44.5825H41.9806V50.1359H0.330078ZM3.10678 61.2427C2.32005 61.2427 1.66104 60.9761 1.12977 60.443C0.596641 59.9117 0.330078 59.2527 0.330078 58.466V55.6893H41.9806V58.466C41.9806 59.2527 41.7149 59.9117 41.1837 60.443C40.6505 60.9761 39.9906 61.2427 39.2039 61.2427H3.10678Z" fill="white"/>
</svg>
