<svg width="20" height="20" viewBox="0 0 27 27" fill="none" xmlns="http://www.w3.org/2000/svg">
<path opacity="0.7" d="M13.3335 5.30353C15.2289 5.27173 17.0604 5.98843 18.4308 7.2982L22.2548 3.4742C19.8415 1.20723 16.6443 -0.0375207 13.3335 0.000861985C10.8613 -0.000164107 8.43763 0.6864 6.33329 1.9838C4.22895 3.28121 2.52693 5.13832 1.41748 7.34753L5.87215 10.8009C6.38446 9.2192 7.37994 7.83805 8.71844 6.85187C10.0569 5.8657 11.671 5.32417 13.3335 5.30353Z" fill="black"/>
<path d="M1.41751 7.34766C0.485391 9.20565 0 11.2556 0 13.3343C0 15.413 0.485391 17.463 1.41751 19.321L5.87218 15.8677C5.31472 14.2248 5.31472 12.4439 5.87218 10.801L1.41885 7.34766H1.41751Z" fill="black"/>
<path opacity="0.5" d="M17.8482 20.0917C16.8173 20.7534 15.6489 21.1709 14.4322 21.3125C13.2154 21.454 11.9824 21.3158 10.8272 20.9083C9.672 20.5009 8.62511 19.835 7.76638 18.9614C6.90765 18.0878 6.25977 17.0297 5.87216 15.8677L1.41882 19.321C2.52807 21.5298 4.22968 23.3867 6.3335 24.684C8.43732 25.9814 10.8605 26.6682 13.3322 26.6677C16.5779 26.7556 19.7345 25.5999 22.1562 23.437L17.8468 20.0917H17.8482Z" fill="black"/>
<path opacity="0.25" d="M25.8908 10.9102H13.3335V16.0675H20.5095C20.361 16.8833 20.0485 17.6605 19.5911 18.3521C19.1337 19.0438 18.5407 19.6355 17.8482 20.0915L17.8348 20.0995L17.8482 20.0915L22.1575 23.4382C23.4698 22.1743 24.5018 20.6488 25.1867 18.9606C25.8717 17.2724 26.1942 15.459 26.1335 13.6382C26.1335 12.7222 26.0535 11.8102 25.8908 10.9102Z" fill="black"/>
</svg>
