<svg width="162" height="100" viewBox="0 0 162 100" fill="none" xmlns="http://www.w3.org/2000/svg">
<g clip-path="url(#clip0_285_852)">
<path d="M123.024 18.6941C123.024 8.35798 114.486 0 103.956 0C93.4259 0 84.8848 8.36868 84.8848 18.6941C84.8944 23.31 86.6144 27.7479 89.6933 31.101L103.994 49.2105L119.651 29.3866H119.596C121.82 26.2925 123.022 22.5445 123.024 18.6941ZM104.129 29.2512C101.979 29.2512 99.8779 28.5944 98.0904 27.3639C96.303 26.1333 94.9099 24.3843 94.0872 22.3381C93.2645 20.2918 93.0493 18.0401 93.4687 15.8678C93.8881 13.6955 94.9233 11.7001 96.4434 10.1339C97.9634 8.56775 99.9001 7.50118 102.009 7.06908C104.117 6.63698 106.302 6.85875 108.288 7.70635C110.275 8.55395 111.972 9.9893 113.166 11.8309C114.361 13.6725 114.998 15.8377 114.998 18.0525C114.998 21.0226 113.853 23.871 111.815 25.9712C109.776 28.0713 107.012 29.2512 104.129 29.2512Z" fill="#3AA9C5"/>
<path d="M0.0691833 49.4743V0.260254H16.328C31.4971 0.260254 35.1329 8.73942 35.1329 24.0404C35.1329 39.6337 31.8396 49.4743 16.328 49.4743H0.0691833ZM16.328 7.23177H7.67969V42.4351H16.328C25.7996 42.4351 27.2421 34.8185 27.2421 24.0404C27.2421 13.2624 25.8031 7.22108 16.3315 7.22108L16.328 7.23177Z" fill="#393333"/>
<path d="M51.6753 31.4575V100H44.0648V0.260254H61.908C72.286 0.260254 77.8209 4.92932 77.8209 15.6753C77.8209 22.5363 75.1434 27.2731 70.1343 29.6754L84.6634 100H76.2919L62.7209 31.4575H51.6753ZM61.9011 7.06426H51.6753V24.6713H62.0533C67.8165 24.6713 70.0097 20.7828 70.0097 15.7608C70.0097 10.2328 67.3876 7.05 61.8976 7.05L61.9011 7.06426Z" fill="#393333"/>
<path d="M136.401 33.6352V100H128.791V0.260254H146.014C156.721 0.260254 162.007 5.63503 162.007 16.5236C162.007 27.4834 156.721 33.6316 146.014 33.6316L136.401 33.6352ZM145.938 26.8632C151.636 26.8632 154.175 23.2563 154.175 16.5271C154.175 9.87996 151.636 7.05357 145.938 7.05357H136.401V26.8525L145.938 26.8632Z" fill="#393333"/>
<path d="M0 55.0735H34.313V61.5674H21.0673V99.9999H13.3807V61.5674H0V55.0735Z" fill="#393333"/>
<path d="M100.147 55.0735H107.758V99.9999H100.147V55.0735Z" fill="#393333"/>
</g>
<defs>
<clipPath id="clip0_285_852">
<rect width="162" height="100" fill="white"/>
</clipPath>
</defs>
</svg>
