<svg width="22" height="32" viewBox="0 0 22 32" fill="none" xmlns="http://www.w3.org/2000/svg">
<path d="M5.89286 0C5.58028 6.70682e-09 5.28051 0.126428 5.05948 0.351472C4.83846 0.576515 4.71429 0.88174 4.71429 1.2C4.71429 1.51826 4.83846 1.82348 5.05948 2.04853C5.28051 2.27357 5.58028 2.4 5.89286 2.4H6.28571V4.8H5.10714C3.75264 4.8 2.45362 5.34786 1.49585 6.32304C0.538072 7.29823 0 8.62087 0 10V24.4C0 25.4266 0.298451 26.4303 0.857743 27.2844C1.41703 28.1386 2.21214 28.8052 3.14286 29.2V30.8C3.14286 31.1183 3.26703 31.4235 3.48805 31.6485C3.70908 31.8736 4.00885 32 4.32143 32C4.63401 32 4.93378 31.8736 5.1548 31.6485C5.37583 31.4235 5.5 31.1183 5.5 30.8V29.6H16.5V30.8C16.5 31.1183 16.6242 31.4235 16.8452 31.6485C17.0662 31.8736 17.366 32 17.6786 32C17.9911 32 18.2909 31.8736 18.5119 31.6485C18.733 31.4235 18.8571 31.1183 18.8571 30.8V29.2C19.7879 28.8052 20.583 28.1386 21.1423 27.2844C21.7015 26.4303 22 25.4266 22 24.4V10C22 8.62087 21.4619 7.29823 20.5042 6.32304C19.5464 5.34786 18.2474 4.8 16.8929 4.8H15.7143V2.4H16.1071C16.4197 2.4 16.7195 2.27357 16.9405 2.04853C17.1615 1.82348 17.2857 1.51826 17.2857 1.2C17.2857 0.88174 17.1615 0.576515 16.9405 0.351472C16.7195 0.126428 16.4197 6.70682e-09 16.1071 0H5.89286ZM13.3571 2.4V4.8H8.64286V2.4H13.3571ZM4.71429 12.4C4.71429 12.0817 4.83846 11.7765 5.05948 11.5515C5.28051 11.3264 5.58028 11.2 5.89286 11.2H16.1071C16.4197 11.2 16.7195 11.3264 16.9405 11.5515C17.1615 11.7765 17.2857 12.0817 17.2857 12.4C17.2857 12.7183 17.1615 13.0235 16.9405 13.2485C16.7195 13.4736 16.4197 13.6 16.1071 13.6H5.89286C5.58028 13.6 5.28051 13.4736 5.05948 13.2485C4.83846 13.0235 4.71429 12.7183 4.71429 12.4Z" fill="white"/>
</svg>
