<svg width="66" height="48" viewBox="0 0 66 48" fill="none" xmlns="http://www.w3.org/2000/svg">
<path d="M12.5747 47.3011V41.0072H18.7892V28.4195L0.14563 0.097168H43.6472L25.0037 28.4195V41.0072H31.2182V47.3011H12.5747ZM15.3712 12.6849H28.4217L32.7718 6.39102H11.021L15.3712 12.6849ZM46.7545 47.3011C44.1651 47.3011 41.9642 46.3832 40.1516 44.5475C38.339 42.7118 37.4327 40.4827 37.4327 37.8603C37.4327 35.2378 38.339 33.0088 40.1516 31.1731C41.9642 29.3374 44.1651 28.4195 46.7545 28.4195C47.3242 28.4195 47.8679 28.4583 48.3858 28.5359C48.9037 28.6157 49.3957 28.7866 49.8618 29.0489V0.097168H65.3981V9.53795H56.0763V37.8603C56.0763 40.4827 55.17 42.7118 53.3574 44.5475C51.5449 46.3832 49.3439 47.3011 46.7545 47.3011Z" fill="white"/>
</svg>
