<svg width="28" height="30" viewBox="0 0 28 30" fill="none" xmlns="http://www.w3.org/2000/svg">
<path d="M27.9994 10.9175C28.0124 10.1402 27.7988 9.37567 27.3843 8.71528C26.9698 8.05489 26.3719 7.52659 25.6621 7.19352C25.6029 6.46961 25.2684 5.79485 24.7262 5.30545C24.1839 4.81605 23.4742 4.54845 22.7403 4.55667C22.5094 4.57499 22.2817 4.6216 22.0625 4.69545C22.0148 4.18211 21.8235 3.69205 21.5102 3.28021C21.1969 2.86837 20.7738 2.55101 20.2885 2.3637C19.8032 2.17639 19.2747 2.12654 18.7624 2.21972C18.25 2.31291 17.774 2.54545 17.3877 2.89129C17.3877 2.12447 17.0798 1.38906 16.5319 0.846839C15.984 0.304617 15.2408 0 14.4659 0C13.691 0 12.9479 0.304617 12.3999 0.846839C11.852 1.38906 11.5442 2.12447 11.5442 2.89129C11.5442 2.89129 11.6377 2.93755 11.6377 3.00694C11.2518 2.67942 10.7845 2.45994 10.2841 2.37122C9.78367 2.2825 9.2684 2.32777 8.79162 2.50234C8.31484 2.6769 7.89389 2.97443 7.57236 3.36409C7.25083 3.75376 7.04041 4.2214 6.96289 4.71858C6.59289 4.60184 6.20579 4.54712 5.81756 4.55667C5.23937 4.55189 4.66896 4.68868 4.15713 4.95487C3.6453 5.22107 3.20795 5.60839 2.88402 6.08235C2.56009 6.55632 2.35964 7.1022 2.30052 7.67138C2.24141 8.24057 2.32547 8.81539 2.54521 9.34464C1.81302 9.54716 1.1679 9.98121 0.708335 10.5805C0.248769 11.1798 0 11.9115 0 12.6638C0 13.4162 0.248769 14.1478 0.708335 14.7472C1.1679 15.3465 1.81302 15.7805 2.54521 15.983C2.78641 16.7208 3.27196 17.3565 3.92338 17.7874C4.5748 18.2183 5.35403 18.4192 6.13511 18.3577C6.9162 18.2962 7.65351 17.9758 8.22785 17.4484C8.8022 16.9209 9.18003 16.2172 9.30028 15.451C9.72803 15.8211 10.2586 16.0524 10.8196 16.1218V27.687L6.96289 30H18.6499L14.91 27.687V23.0609C16.6352 20.9988 18.8637 19.4065 21.3846 18.4349C21.9014 18.5548 22.439 18.5563 22.9564 18.4392C23.4738 18.3221 23.9574 18.0895 24.3701 17.7592C24.7828 17.429 25.1137 17.0097 25.3376 16.5335C25.5616 16.0573 25.6725 15.5367 25.6621 15.0116C25.6688 14.8883 25.6688 14.7648 25.6621 14.6415C26.3719 14.3084 26.9698 13.7801 27.3843 13.1197C27.7988 12.4593 28.0124 11.6948 27.9994 10.9175ZM14.91 21.3493V13.3924C15.5411 14.5027 16.7285 15.1943 18.0188 15.1966H18.6732C18.7106 16.2143 19.1968 17.1604 20.0056 17.7872C18.0989 18.6523 16.3711 19.8601 14.91 21.3493Z" fill="white"/>
</svg>
