<svg width="61" height="60" viewBox="0 0 61 60" fill="none" xmlns="http://www.w3.org/2000/svg">
<path d="M18.7128 59.8543C17.0695 59.8543 15.6633 59.2702 14.4941 58.1021C13.3229 56.932 12.7373 55.5261 12.7373 53.8844C12.7373 52.2427 13.3229 50.8368 14.4941 49.6667C15.6633 48.4986 17.0695 47.9145 18.7128 47.9145C20.356 47.9145 21.7622 48.4986 22.9314 49.6667C24.1026 50.8368 24.6882 52.2427 24.6882 53.8844C24.6882 55.5261 24.1026 56.932 22.9314 58.1021C21.7622 59.2702 20.356 59.8543 18.7128 59.8543ZM48.5899 59.8543C46.9466 59.8543 45.5404 59.2702 44.3712 58.1021C43.2001 56.932 42.6145 55.5261 42.6145 53.8844C42.6145 52.2427 43.2001 50.8368 44.3712 49.6667C45.5404 48.4986 46.9466 47.9145 48.5899 47.9145C50.2331 47.9145 51.6403 48.4986 52.8115 49.6667C53.9807 50.8368 54.5653 52.2427 54.5653 53.8844C54.5653 55.5261 53.9807 56.932 52.8115 58.1021C51.6403 59.2702 50.2331 59.8543 48.5899 59.8543ZM13.3349 6.12518H57.4036C58.5489 6.12518 59.4203 6.63461 60.0179 7.65347C60.6154 8.67432 60.6403 9.70712 60.0926 10.7519L49.4862 29.8555C48.9385 30.8505 48.2035 31.6216 47.2813 32.1689C46.3611 32.7161 45.3532 32.9897 44.2577 32.9897H21.9993L18.7128 38.9596H54.5653V44.9295H18.7128C16.472 44.9295 14.779 43.9465 13.6337 41.9804C12.4884 40.0163 12.4386 38.0642 13.4843 36.1239L17.5177 28.8108L6.76192 6.12518H0.786499V0.155273H10.4966L13.3349 6.12518Z" fill="white"/>
</svg>
