<svg width="55" height="60" viewBox="0 0 55 60" fill="none" xmlns="http://www.w3.org/2000/svg">
<path d="M4.14914 51.7384L0.29126 47.9509L11.3911 36.8592C12.7899 35.4614 13.7483 33.7138 14.2662 31.6163C14.786 29.5206 15.0459 26.3085 15.0459 21.98C15.0459 19.3648 15.6325 16.7948 16.8057 14.2698C17.9788 11.7449 19.6483 9.40027 21.8141 7.23602C25.9202 3.13297 30.4549 0.810913 35.4182 0.269851C40.3816 -0.271211 44.4651 1.10399 47.6687 4.39545C50.9174 7.64182 52.2711 11.7449 51.7296 16.7046C51.1882 21.6643 48.887 26.1732 44.826 30.2312C42.6602 32.3954 40.3139 34.0637 37.7871 35.236C35.2603 36.4083 32.6884 36.9944 30.0714 36.9944C25.6946 36.9944 22.491 37.2424 20.4605 37.7384C18.43 38.2344 16.6929 39.2038 15.249 40.6466L4.14914 51.7384ZM22.7617 29.149C24.8824 31.2231 27.7476 31.9896 31.3573 31.4485C34.967 30.9075 38.1932 29.2167 41.0358 26.3761C43.9236 23.4904 45.65 20.2549 46.2149 16.6694C46.778 13.0858 45.9992 10.2795 43.8785 8.25052C41.7127 6.08627 38.8818 5.27468 35.3858 5.81574C31.8879 6.3568 28.6726 8.07016 25.7397 10.9558C22.8971 13.7964 21.1716 17.0094 20.5634 20.5948C19.9533 24.1785 20.6861 27.0299 22.7617 29.149ZM43.6078 59.8543C40.6298 59.8543 38.0804 58.7947 35.9597 56.6756C33.839 54.5564 32.7786 52.0089 32.7786 49.0331C32.7786 46.0572 33.839 43.5097 35.9597 41.3906C38.0804 39.2714 40.6298 38.2118 43.6078 38.2118C46.5858 38.2118 49.1351 39.2714 51.2558 41.3906C53.3765 43.5097 54.4369 46.0572 54.4369 49.0331C54.4369 52.0089 53.3765 54.5564 51.2558 56.6756C49.1351 58.7947 46.5858 59.8543 43.6078 59.8543Z" fill="white"/>
</svg>
