<svg width="42" height="42" viewBox="0 0 42 42" fill="none" xmlns="http://www.w3.org/2000/svg">
<path d="M23.625 9.1875C25.448 9.1875 26.906 7.72931 26.906 5.90625C26.906 4.08311 25.448 2.625 23.625 2.625C21.802 2.625 20.3435 4.08311 20.3435 5.90625C20.3435 7.72931 21.802 9.1875 23.625 9.1875Z" fill="black"/>
<path d="M23.625 19.0311H32.1562V15.7499H26.25L22.5748 10.0624C21.9434 9.10537 21.0871 8.57471 20.0374 8.57471C19.775 8.57471 19.3132 8.61827 18.9874 8.71802L9.84375 11.8124V20.9999H13.125V14.4374L16.4498 13.1249L9.84375 39.3749H13.125L17.776 25.8995L21.9023 31.4999V39.3749H25.0195V28.8749L20.3412 20.9999L21.9609 15.9251L23.625 19.0311Z" fill="black"/>
</svg>
